<mxfile host="app.diagrams.net" modified="2020-11-19T17:11:15.314Z" agent="5.0 (Windows)" etag="6NoiGLNU3KbqbBnwl6Z6" version="13.10.0" type="github">
  <diagram id="Yevh-g8nTKUBOGGr0oUq" name="Page-1">
    <mxGraphModel dx="782" dy="1876" grid="1" gridSize="10" guides="1" tooltips="1" connect="1" arrows="1" fold="1" page="1" pageScale="1" pageWidth="827" pageHeight="1169" math="0" shadow="0">
      <root>
        <mxCell id="gkHT4bu3b0f0jtjOqA4o-0" />
        <mxCell id="gkHT4bu3b0f0jtjOqA4o-1" parent="gkHT4bu3b0f0jtjOqA4o-0" />
        <mxCell id="12xH_gXyC0JP7orOwCKg-13" style="edgeStyle=orthogonalEdgeStyle;rounded=0;orthogonalLoop=1;jettySize=auto;html=1;exitX=0.5;exitY=1;exitDx=0;exitDy=0;" parent="gkHT4bu3b0f0jtjOqA4o-1" source="ddazaEeR6ssN1BWX0ktI-1" target="12xH_gXyC0JP7orOwCKg-29" edge="1">
          <mxGeometry relative="1" as="geometry">
            <Array as="points">
              <mxPoint x="571" y="580" />
              <mxPoint x="496" y="580" />
            </Array>
            <mxPoint x="570.8571428571429" y="542.5" as="sourcePoint" />
          </mxGeometry>
        </mxCell>
        <mxCell id="8inwFE-MQz8HEBYmpQ9X-59" style="edgeStyle=orthogonalEdgeStyle;rounded=0;orthogonalLoop=1;jettySize=auto;html=1;" parent="gkHT4bu3b0f0jtjOqA4o-1" source="ddazaEeR6ssN1BWX0ktI-1" target="8inwFE-MQz8HEBYmpQ9X-58" edge="1">
          <mxGeometry relative="1" as="geometry">
            <Array as="points">
              <mxPoint x="571" y="580" />
              <mxPoint x="632" y="580" />
            </Array>
            <mxPoint x="570.8571428571429" y="542.5" as="sourcePoint" />
          </mxGeometry>
        </mxCell>
        <mxCell id="VNxaeYcz-5pTjhsVP7Z5-0" style="edgeStyle=orthogonalEdgeStyle;rounded=0;orthogonalLoop=1;jettySize=auto;html=1;" parent="gkHT4bu3b0f0jtjOqA4o-1" source="12xH_gXyC0JP7orOwCKg-22" target="ddazaEeR6ssN1BWX0ktI-1" edge="1">
          <mxGeometry relative="1" as="geometry">
            <mxPoint x="520.9299999999996" y="492.5" as="targetPoint" />
          </mxGeometry>
        </mxCell>
        <mxCell id="12xH_gXyC0JP7orOwCKg-22" value="Input 3" style="shape=parallelogram;html=1;strokeWidth=2;perimeter=parallelogramPerimeter;whiteSpace=wrap;rounded=1;arcSize=12;size=0.23;" parent="gkHT4bu3b0f0jtjOqA4o-1" vertex="1">
          <mxGeometry x="340.92999999999995" y="455" width="100" height="60" as="geometry" />
        </mxCell>
        <mxCell id="12xH_gXyC0JP7orOwCKg-29" value="&lt;div&gt;Output 1&lt;/div&gt;" style="shape=parallelogram;html=1;strokeWidth=2;perimeter=parallelogramPerimeter;whiteSpace=wrap;rounded=1;arcSize=12;size=0.23;" parent="gkHT4bu3b0f0jtjOqA4o-1" vertex="1">
          <mxGeometry x="440.93" y="620" width="109.07" height="60" as="geometry" />
        </mxCell>
        <mxCell id="ddazaEeR6ssN1BWX0ktI-6" style="edgeStyle=orthogonalEdgeStyle;rounded=0;orthogonalLoop=1;jettySize=auto;html=1;exitX=0.5;exitY=1;exitDx=0;exitDy=0;" parent="gkHT4bu3b0f0jtjOqA4o-1" source="ddazaEeR6ssN1BWX0ktI-7" target="ddazaEeR6ssN1BWX0ktI-4" edge="1">
          <mxGeometry relative="1" as="geometry">
            <mxPoint x="570.9000000000001" y="270" as="sourcePoint" />
          </mxGeometry>
        </mxCell>
        <mxCell id="VNxaeYcz-5pTjhsVP7Z5-6" style="edgeStyle=orthogonalEdgeStyle;rounded=0;orthogonalLoop=1;jettySize=auto;html=1;" parent="gkHT4bu3b0f0jtjOqA4o-1" source="12xH_gXyC0JP7orOwCKg-57" target="ddazaEeR6ssN1BWX0ktI-1" edge="1">
          <mxGeometry relative="1" as="geometry">
            <mxPoint x="621" y="493" as="targetPoint" />
          </mxGeometry>
        </mxCell>
        <mxCell id="12xH_gXyC0JP7orOwCKg-57" value="Parameters (model)" style="shape=parallelogram;html=1;strokeWidth=2;perimeter=parallelogramPerimeter;whiteSpace=wrap;rounded=1;arcSize=12;size=0.23;" parent="gkHT4bu3b0f0jtjOqA4o-1" vertex="1">
          <mxGeometry x="710" y="455" width="100" height="60" as="geometry" />
        </mxCell>
        <mxCell id="VNxaeYcz-5pTjhsVP7Z5-1" style="edgeStyle=orthogonalEdgeStyle;rounded=0;orthogonalLoop=1;jettySize=auto;html=1;entryX=0.5;entryY=0;entryDx=0;entryDy=0;" parent="gkHT4bu3b0f0jtjOqA4o-1" target="ddazaEeR6ssN1BWX0ktI-1" edge="1">
          <mxGeometry relative="1" as="geometry">
            <mxPoint x="570.9300000000001" y="380" as="sourcePoint" />
            <mxPoint x="570.9300000000001" y="442.5" as="targetPoint" />
          </mxGeometry>
        </mxCell>
        <mxCell id="VNxaeYcz-5pTjhsVP7Z5-10" style="edgeStyle=orthogonalEdgeStyle;rounded=0;orthogonalLoop=1;jettySize=auto;html=1;entryX=0.5;entryY=0;entryDx=0;entryDy=0;" parent="gkHT4bu3b0f0jtjOqA4o-1" source="crPVwcIPL3rN5ODeDzdk-15" target="ddazaEeR6ssN1BWX0ktI-7" edge="1">
          <mxGeometry relative="1" as="geometry">
            <mxPoint x="570.9300000000001" y="210" as="targetPoint" />
          </mxGeometry>
        </mxCell>
        <mxCell id="crPVwcIPL3rN5ODeDzdk-15" value="Data layer" style="swimlane;" parent="gkHT4bu3b0f0jtjOqA4o-1" vertex="1">
          <mxGeometry x="299.11" y="10" width="567.26" height="140" as="geometry" />
        </mxCell>
        <mxCell id="crPVwcIPL3rN5ODeDzdk-16" value="&lt;div&gt;Daily precip&lt;/div&gt;&lt;div&gt;(total)&lt;br&gt;&lt;/div&gt;" style="shape=parallelogram;html=1;strokeWidth=2;perimeter=parallelogramPerimeter;whiteSpace=wrap;rounded=1;arcSize=12;size=0.23;" parent="crPVwcIPL3rN5ODeDzdk-15" vertex="1">
          <mxGeometry x="100" y="49.21" width="100" height="60" as="geometry" />
        </mxCell>
        <mxCell id="crPVwcIPL3rN5ODeDzdk-17" value="&lt;div&gt;Daily temp&lt;/div&gt;&lt;div&gt;mean/min/&lt;/div&gt;&lt;div&gt;max&lt;br&gt;&lt;/div&gt;" style="shape=parallelogram;html=1;strokeWidth=2;perimeter=parallelogramPerimeter;whiteSpace=wrap;rounded=1;arcSize=12;size=0.23;" parent="crPVwcIPL3rN5ODeDzdk-15" vertex="1">
          <mxGeometry x="10" y="49.21" width="100" height="60" as="geometry" />
        </mxCell>
        <mxCell id="wCKSHiEcdpWvHQWmLOOp-2" value="&lt;div&gt;Daily sw&lt;/div&gt;&lt;div&gt;radiation&lt;br&gt;&lt;/div&gt;" style="shape=parallelogram;html=1;strokeWidth=2;perimeter=parallelogramPerimeter;whiteSpace=wrap;rounded=1;arcSize=12;size=0.23;" vertex="1" parent="crPVwcIPL3rN5ODeDzdk-15">
          <mxGeometry x="190" y="49.21000000000001" width="100" height="60" as="geometry" />
        </mxCell>
        <mxCell id="wCKSHiEcdpWvHQWmLOOp-3" value="&lt;div&gt;Daily rel.&lt;/div&gt;&lt;div&gt;humidity&lt;br&gt;&lt;/div&gt;" style="shape=parallelogram;html=1;strokeWidth=2;perimeter=parallelogramPerimeter;whiteSpace=wrap;rounded=1;arcSize=12;size=0.23;" vertex="1" parent="crPVwcIPL3rN5ODeDzdk-15">
          <mxGeometry x="280" y="49.21000000000001" width="100" height="60" as="geometry" />
        </mxCell>
        <mxCell id="wCKSHiEcdpWvHQWmLOOp-5" value="&lt;div&gt;Daily mean&lt;/div&gt;&lt;div&gt;wind speed&lt;br&gt;&lt;/div&gt;" style="shape=parallelogram;html=1;strokeWidth=2;perimeter=parallelogramPerimeter;whiteSpace=wrap;rounded=1;arcSize=12;size=0.23;" vertex="1" parent="crPVwcIPL3rN5ODeDzdk-15">
          <mxGeometry x="370" y="49.21000000000001" width="100" height="60" as="geometry" />
        </mxCell>
        <mxCell id="wCKSHiEcdpWvHQWmLOOp-6" value="&lt;div&gt;Yearly CO2&lt;/div&gt;&lt;div&gt;conc.&lt;br&gt;&lt;/div&gt;" style="shape=parallelogram;html=1;strokeWidth=2;perimeter=parallelogramPerimeter;whiteSpace=wrap;rounded=1;arcSize=12;size=0.23;" vertex="1" parent="crPVwcIPL3rN5ODeDzdk-15">
          <mxGeometry x="457.26" y="49.21000000000001" width="100" height="60" as="geometry" />
        </mxCell>
        <mxCell id="8inwFE-MQz8HEBYmpQ9X-0" value="" style="shape=table;html=1;whiteSpace=wrap;startSize=0;container=1;collapsible=0;childLayout=tableLayout;spacingTop=0;rowLines=0;" parent="gkHT4bu3b0f0jtjOqA4o-1" vertex="1">
          <mxGeometry x="1110" y="270" width="513" height="190" as="geometry" />
        </mxCell>
        <mxCell id="8inwFE-MQz8HEBYmpQ9X-1" value="" style="shape=partialRectangle;html=1;whiteSpace=wrap;collapsible=0;dropTarget=0;pointerEvents=0;fillColor=none;top=0;left=0;bottom=0;right=0;points=[[0,0.5],[1,0.5]];portConstraint=eastwest;perimeterSpacing=2;strokeWidth=5;" parent="8inwFE-MQz8HEBYmpQ9X-0" vertex="1">
          <mxGeometry width="513" height="30" as="geometry" />
        </mxCell>
        <mxCell id="8inwFE-MQz8HEBYmpQ9X-2" value="&lt;b&gt;Dataset&lt;/b&gt;" style="shape=partialRectangle;html=1;whiteSpace=wrap;connectable=0;fillColor=none;top=0;left=0;bottom=1;right=0;overflow=hidden;" parent="8inwFE-MQz8HEBYmpQ9X-1" vertex="1">
          <mxGeometry width="257" height="30" as="geometry" />
        </mxCell>
        <mxCell id="8inwFE-MQz8HEBYmpQ9X-3" value="&lt;b&gt;Format&lt;/b&gt;" style="shape=partialRectangle;html=1;whiteSpace=wrap;connectable=0;fillColor=none;top=0;left=0;bottom=1;right=0;overflow=hidden;sketch=0;" parent="8inwFE-MQz8HEBYmpQ9X-1" vertex="1">
          <mxGeometry x="257" width="256" height="30" as="geometry" />
        </mxCell>
        <mxCell id="8inwFE-MQz8HEBYmpQ9X-4" style="shape=partialRectangle;html=1;whiteSpace=wrap;collapsible=0;dropTarget=0;pointerEvents=0;fillColor=none;top=0;left=0;bottom=0;right=0;points=[[0,0.5],[1,0.5]];portConstraint=eastwest;strokeColor=none;" parent="8inwFE-MQz8HEBYmpQ9X-0" vertex="1">
          <mxGeometry y="30" width="513" height="20" as="geometry" />
        </mxCell>
        <mxCell id="8inwFE-MQz8HEBYmpQ9X-5" value="Parameters (model)" style="shape=partialRectangle;html=1;whiteSpace=wrap;connectable=0;fillColor=none;top=0;left=0;bottom=0;right=0;overflow=hidden;strokeColor=none;" parent="8inwFE-MQz8HEBYmpQ9X-4" vertex="1">
          <mxGeometry width="257" height="20" as="geometry" />
        </mxCell>
        <mxCell id="8inwFE-MQz8HEBYmpQ9X-6" value=".csv" style="shape=partialRectangle;html=1;whiteSpace=wrap;connectable=0;fillColor=none;top=0;left=0;bottom=0;right=0;overflow=hidden;strokeColor=none;" parent="8inwFE-MQz8HEBYmpQ9X-4" vertex="1">
          <mxGeometry x="257" width="256" height="20" as="geometry" />
        </mxCell>
        <mxCell id="8inwFE-MQz8HEBYmpQ9X-7" value="" style="shape=partialRectangle;html=1;whiteSpace=wrap;collapsible=0;dropTarget=0;pointerEvents=0;fillColor=none;top=0;left=0;bottom=0;right=0;points=[[0,0.5],[1,0.5]];portConstraint=eastwest;strokeColor=none;" parent="8inwFE-MQz8HEBYmpQ9X-0" vertex="1">
          <mxGeometry y="50" width="513" height="20" as="geometry" />
        </mxCell>
        <mxCell id="8inwFE-MQz8HEBYmpQ9X-8" value="Input 1" style="shape=partialRectangle;html=1;whiteSpace=wrap;connectable=0;fillColor=none;top=0;left=0;bottom=0;right=0;overflow=hidden;strokeColor=none;" parent="8inwFE-MQz8HEBYmpQ9X-7" vertex="1">
          <mxGeometry width="257" height="20" as="geometry" />
        </mxCell>
        <mxCell id="8inwFE-MQz8HEBYmpQ9X-9" value=".shp (Shapefile)" style="shape=partialRectangle;html=1;whiteSpace=wrap;connectable=0;fillColor=none;top=0;left=0;bottom=0;right=0;overflow=hidden;strokeColor=none;" parent="8inwFE-MQz8HEBYmpQ9X-7" vertex="1">
          <mxGeometry x="257" width="256" height="20" as="geometry" />
        </mxCell>
        <mxCell id="8inwFE-MQz8HEBYmpQ9X-10" value="" style="shape=partialRectangle;html=1;whiteSpace=wrap;collapsible=0;dropTarget=0;pointerEvents=0;fillColor=none;top=0;left=0;bottom=0;right=0;points=[[0,0.5],[1,0.5]];portConstraint=eastwest;strokeColor=none;" parent="8inwFE-MQz8HEBYmpQ9X-0" vertex="1">
          <mxGeometry y="70" width="513" height="20" as="geometry" />
        </mxCell>
        <mxCell id="8inwFE-MQz8HEBYmpQ9X-11" value="Input 2" style="shape=partialRectangle;html=1;whiteSpace=wrap;connectable=0;fillColor=none;top=0;left=0;bottom=0;right=0;overflow=hidden;strokeColor=none;" parent="8inwFE-MQz8HEBYmpQ9X-10" vertex="1">
          <mxGeometry width="257" height="20" as="geometry" />
        </mxCell>
        <mxCell id="8inwFE-MQz8HEBYmpQ9X-12" value=".shp" style="shape=partialRectangle;html=1;whiteSpace=wrap;connectable=0;fillColor=none;top=0;left=0;bottom=0;right=0;overflow=hidden;strokeColor=none;" parent="8inwFE-MQz8HEBYmpQ9X-10" vertex="1">
          <mxGeometry x="257" width="256" height="20" as="geometry" />
        </mxCell>
        <mxCell id="8inwFE-MQz8HEBYmpQ9X-16" style="shape=partialRectangle;html=1;whiteSpace=wrap;collapsible=0;dropTarget=0;pointerEvents=0;fillColor=none;top=0;left=0;bottom=0;right=0;points=[[0,0.5],[1,0.5]];portConstraint=eastwest;strokeColor=none;" parent="8inwFE-MQz8HEBYmpQ9X-0" vertex="1">
          <mxGeometry y="90" width="513" height="20" as="geometry" />
        </mxCell>
        <mxCell id="8inwFE-MQz8HEBYmpQ9X-17" value="Input 3" style="shape=partialRectangle;html=1;whiteSpace=wrap;connectable=0;fillColor=none;top=0;left=0;bottom=0;right=0;overflow=hidden;strokeColor=none;" parent="8inwFE-MQz8HEBYmpQ9X-16" vertex="1">
          <mxGeometry width="257" height="20" as="geometry" />
        </mxCell>
        <mxCell id="8inwFE-MQz8HEBYmpQ9X-18" value=".shp&lt;sup&gt;+&lt;/sup&gt;" style="shape=partialRectangle;html=1;whiteSpace=wrap;connectable=0;fillColor=none;top=0;left=0;bottom=0;right=0;overflow=hidden;strokeColor=none;" parent="8inwFE-MQz8HEBYmpQ9X-16" vertex="1">
          <mxGeometry x="257" width="256" height="20" as="geometry" />
        </mxCell>
        <mxCell id="8inwFE-MQz8HEBYmpQ9X-31" style="shape=partialRectangle;html=1;whiteSpace=wrap;collapsible=0;dropTarget=0;pointerEvents=0;fillColor=none;top=0;left=0;bottom=0;right=0;points=[[0,0.5],[1,0.5]];portConstraint=eastwest;strokeColor=none;" parent="8inwFE-MQz8HEBYmpQ9X-0" vertex="1">
          <mxGeometry y="110" width="513" height="20" as="geometry" />
        </mxCell>
        <mxCell id="8inwFE-MQz8HEBYmpQ9X-32" value="" style="shape=partialRectangle;html=1;whiteSpace=wrap;connectable=0;fillColor=none;top=0;left=0;bottom=0;right=0;overflow=hidden;strokeColor=none;" parent="8inwFE-MQz8HEBYmpQ9X-31" vertex="1">
          <mxGeometry width="257" height="20" as="geometry" />
        </mxCell>
        <mxCell id="8inwFE-MQz8HEBYmpQ9X-33" value="" style="shape=partialRectangle;html=1;whiteSpace=wrap;connectable=0;fillColor=none;top=0;left=0;bottom=0;right=0;overflow=hidden;strokeColor=none;" parent="8inwFE-MQz8HEBYmpQ9X-31" vertex="1">
          <mxGeometry x="257" width="256" height="20" as="geometry" />
        </mxCell>
        <mxCell id="8inwFE-MQz8HEBYmpQ9X-52" style="shape=partialRectangle;html=1;whiteSpace=wrap;collapsible=0;dropTarget=0;pointerEvents=0;fillColor=none;top=0;left=0;bottom=0;right=0;points=[[0,0.5],[1,0.5]];portConstraint=eastwest;strokeColor=none;" parent="8inwFE-MQz8HEBYmpQ9X-0" vertex="1">
          <mxGeometry y="130" width="513" height="20" as="geometry" />
        </mxCell>
        <mxCell id="8inwFE-MQz8HEBYmpQ9X-53" style="shape=partialRectangle;html=1;whiteSpace=wrap;connectable=0;fillColor=none;top=0;left=0;bottom=0;right=0;overflow=hidden;strokeColor=none;" parent="8inwFE-MQz8HEBYmpQ9X-52" vertex="1">
          <mxGeometry width="257" height="20" as="geometry" />
        </mxCell>
        <mxCell id="8inwFE-MQz8HEBYmpQ9X-54" style="shape=partialRectangle;html=1;whiteSpace=wrap;connectable=0;fillColor=none;top=0;left=0;bottom=0;right=0;overflow=hidden;strokeColor=none;" parent="8inwFE-MQz8HEBYmpQ9X-52" vertex="1">
          <mxGeometry x="257" width="256" height="20" as="geometry" />
        </mxCell>
        <mxCell id="8inwFE-MQz8HEBYmpQ9X-49" style="shape=partialRectangle;html=1;whiteSpace=wrap;collapsible=0;dropTarget=0;pointerEvents=0;fillColor=none;top=0;left=0;bottom=0;right=0;points=[[0,0.5],[1,0.5]];portConstraint=eastwest;strokeColor=none;" parent="8inwFE-MQz8HEBYmpQ9X-0" vertex="1">
          <mxGeometry y="150" width="513" height="20" as="geometry" />
        </mxCell>
        <mxCell id="8inwFE-MQz8HEBYmpQ9X-50" value="Output 1" style="shape=partialRectangle;html=1;whiteSpace=wrap;connectable=0;fillColor=none;top=0;left=0;bottom=0;right=0;overflow=hidden;strokeColor=none;" parent="8inwFE-MQz8HEBYmpQ9X-49" vertex="1">
          <mxGeometry width="257" height="20" as="geometry" />
        </mxCell>
        <mxCell id="8inwFE-MQz8HEBYmpQ9X-51" value=".csv" style="shape=partialRectangle;html=1;whiteSpace=wrap;connectable=0;fillColor=none;top=0;left=0;bottom=0;right=0;overflow=hidden;strokeColor=none;" parent="8inwFE-MQz8HEBYmpQ9X-49" vertex="1">
          <mxGeometry x="257" width="256" height="20" as="geometry" />
        </mxCell>
        <mxCell id="8inwFE-MQz8HEBYmpQ9X-55" style="shape=partialRectangle;html=1;whiteSpace=wrap;collapsible=0;dropTarget=0;pointerEvents=0;fillColor=none;top=0;left=0;bottom=0;right=0;points=[[0,0.5],[1,0.5]];portConstraint=eastwest;strokeColor=none;" parent="8inwFE-MQz8HEBYmpQ9X-0" vertex="1">
          <mxGeometry y="170" width="513" height="20" as="geometry" />
        </mxCell>
        <mxCell id="8inwFE-MQz8HEBYmpQ9X-56" value="Output 2" style="shape=partialRectangle;html=1;whiteSpace=wrap;connectable=0;fillColor=none;top=0;left=0;bottom=0;right=0;overflow=hidden;strokeColor=none;" parent="8inwFE-MQz8HEBYmpQ9X-55" vertex="1">
          <mxGeometry width="257" height="20" as="geometry" />
        </mxCell>
        <mxCell id="8inwFE-MQz8HEBYmpQ9X-57" value=".geojson" style="shape=partialRectangle;html=1;whiteSpace=wrap;connectable=0;fillColor=none;top=0;left=0;bottom=0;right=0;overflow=hidden;strokeColor=none;" parent="8inwFE-MQz8HEBYmpQ9X-55" vertex="1">
          <mxGeometry x="257" width="256" height="20" as="geometry" />
        </mxCell>
        <mxCell id="8inwFE-MQz8HEBYmpQ9X-48" value="Notes:&lt;br&gt;*Optional datasets&lt;br&gt;+Data converted to .asci grid format from .shp, so potential to accept raster datasets if using the same griding scale. E.g. 100x100m" style="text;html=1;strokeColor=none;fillColor=none;align=left;verticalAlign=top;whiteSpace=wrap;rounded=0;" parent="gkHT4bu3b0f0jtjOqA4o-1" vertex="1">
          <mxGeometry x="1110" y="500" width="460" height="100" as="geometry" />
        </mxCell>
        <mxCell id="8inwFE-MQz8HEBYmpQ9X-58" value="Output 2" style="shape=parallelogram;html=1;strokeWidth=2;perimeter=parallelogramPerimeter;whiteSpace=wrap;rounded=1;arcSize=12;size=0.23;" parent="gkHT4bu3b0f0jtjOqA4o-1" vertex="1">
          <mxGeometry x="577.1899999999999" y="620" width="109.07" height="60" as="geometry" />
        </mxCell>
        <mxCell id="VNxaeYcz-5pTjhsVP7Z5-8" style="edgeStyle=orthogonalEdgeStyle;rounded=0;orthogonalLoop=1;jettySize=auto;html=1;" parent="gkHT4bu3b0f0jtjOqA4o-1" source="8inwFE-MQz8HEBYmpQ9X-65" target="ddazaEeR6ssN1BWX0ktI-7" edge="1">
          <mxGeometry relative="1" as="geometry">
            <mxPoint x="620.9300000000001" y="240" as="targetPoint" />
          </mxGeometry>
        </mxCell>
        <mxCell id="8inwFE-MQz8HEBYmpQ9X-65" value="Parameters" style="shape=parallelogram;html=1;strokeWidth=2;perimeter=parallelogramPerimeter;whiteSpace=wrap;rounded=1;arcSize=12;size=0.23;" parent="gkHT4bu3b0f0jtjOqA4o-1" vertex="1">
          <mxGeometry x="710" y="210" width="100" height="60" as="geometry" />
        </mxCell>
        <mxCell id="VNxaeYcz-5pTjhsVP7Z5-5" style="edgeStyle=orthogonalEdgeStyle;rounded=0;orthogonalLoop=1;jettySize=auto;html=1;entryX=1;entryY=0.5;entryDx=0;entryDy=0;" parent="gkHT4bu3b0f0jtjOqA4o-1" source="12xH_gXyC0JP7orOwCKg-43" target="12xH_gXyC0JP7orOwCKg-57" edge="1">
          <mxGeometry relative="1" as="geometry">
            <Array as="points">
              <mxPoint x="895" y="479" />
            </Array>
          </mxGeometry>
        </mxCell>
        <mxCell id="12xH_gXyC0JP7orOwCKg-43" value="" style="shape=table;html=1;whiteSpace=wrap;startSize=0;container=1;collapsible=0;childLayout=tableLayout;" parent="gkHT4bu3b0f0jtjOqA4o-1" vertex="1">
          <mxGeometry x="700" y="302.5" width="390" height="140" as="geometry" />
        </mxCell>
        <mxCell id="12xH_gXyC0JP7orOwCKg-44" value="" style="shape=partialRectangle;html=1;whiteSpace=wrap;collapsible=0;dropTarget=0;pointerEvents=0;fillColor=none;top=0;left=0;bottom=0;right=0;points=[[0,0.5],[1,0.5]];portConstraint=eastwest;" parent="12xH_gXyC0JP7orOwCKg-43" vertex="1">
          <mxGeometry width="390" height="35" as="geometry" />
        </mxCell>
        <mxCell id="12xH_gXyC0JP7orOwCKg-45" value="Parameter" style="shape=partialRectangle;html=1;whiteSpace=wrap;connectable=0;overflow=hidden;fillColor=none;top=0;left=0;bottom=0;right=0;" parent="12xH_gXyC0JP7orOwCKg-44" vertex="1">
          <mxGeometry width="140" height="35" as="geometry" />
        </mxCell>
        <mxCell id="12xH_gXyC0JP7orOwCKg-46" value="Description" style="shape=partialRectangle;html=1;whiteSpace=wrap;connectable=0;overflow=hidden;fillColor=none;top=0;left=0;bottom=0;right=0;" parent="12xH_gXyC0JP7orOwCKg-44" vertex="1">
          <mxGeometry x="140" width="250" height="35" as="geometry" />
        </mxCell>
        <mxCell id="12xH_gXyC0JP7orOwCKg-47" value="" style="shape=partialRectangle;html=1;whiteSpace=wrap;collapsible=0;dropTarget=0;pointerEvents=0;fillColor=none;top=0;left=0;bottom=0;right=0;points=[[0,0.5],[1,0.5]];portConstraint=eastwest;" parent="12xH_gXyC0JP7orOwCKg-43" vertex="1">
          <mxGeometry y="35" width="390" height="35" as="geometry" />
        </mxCell>
        <mxCell id="12xH_gXyC0JP7orOwCKg-48" value="Example parameter 1" style="shape=partialRectangle;html=1;whiteSpace=wrap;connectable=0;overflow=hidden;fillColor=none;top=0;left=0;bottom=0;right=0;" parent="12xH_gXyC0JP7orOwCKg-47" vertex="1">
          <mxGeometry width="140" height="35" as="geometry" />
        </mxCell>
        <mxCell id="12xH_gXyC0JP7orOwCKg-49" value="A description for the parameter" style="shape=partialRectangle;html=1;whiteSpace=wrap;connectable=0;overflow=hidden;fillColor=none;top=0;left=0;bottom=0;right=0;" parent="12xH_gXyC0JP7orOwCKg-47" vertex="1">
          <mxGeometry x="140" width="250" height="35" as="geometry" />
        </mxCell>
        <mxCell id="12xH_gXyC0JP7orOwCKg-50" value="" style="shape=partialRectangle;html=1;whiteSpace=wrap;collapsible=0;dropTarget=0;pointerEvents=0;fillColor=none;top=0;left=0;bottom=0;right=0;points=[[0,0.5],[1,0.5]];portConstraint=eastwest;" parent="12xH_gXyC0JP7orOwCKg-43" vertex="1">
          <mxGeometry y="70" width="390" height="35" as="geometry" />
        </mxCell>
        <mxCell id="12xH_gXyC0JP7orOwCKg-51" value="" style="shape=partialRectangle;html=1;whiteSpace=wrap;connectable=0;overflow=hidden;fillColor=none;top=0;left=0;bottom=0;right=0;" parent="12xH_gXyC0JP7orOwCKg-50" vertex="1">
          <mxGeometry width="140" height="35" as="geometry" />
        </mxCell>
        <mxCell id="12xH_gXyC0JP7orOwCKg-52" value="" style="shape=partialRectangle;html=1;whiteSpace=wrap;connectable=0;overflow=hidden;fillColor=none;top=0;left=0;bottom=0;right=0;" parent="12xH_gXyC0JP7orOwCKg-50" vertex="1">
          <mxGeometry x="140" width="250" height="35" as="geometry" />
        </mxCell>
        <mxCell id="12xH_gXyC0JP7orOwCKg-53" value="" style="shape=partialRectangle;html=1;whiteSpace=wrap;collapsible=0;dropTarget=0;pointerEvents=0;fillColor=none;top=0;left=0;bottom=0;right=0;points=[[0,0.5],[1,0.5]];portConstraint=eastwest;" parent="12xH_gXyC0JP7orOwCKg-43" vertex="1">
          <mxGeometry y="105" width="390" height="35" as="geometry" />
        </mxCell>
        <mxCell id="12xH_gXyC0JP7orOwCKg-54" value="" style="shape=partialRectangle;html=1;whiteSpace=wrap;connectable=0;overflow=hidden;fillColor=none;top=0;left=0;bottom=0;right=0;" parent="12xH_gXyC0JP7orOwCKg-53" vertex="1">
          <mxGeometry width="140" height="35" as="geometry" />
        </mxCell>
        <mxCell id="12xH_gXyC0JP7orOwCKg-55" value="" style="shape=partialRectangle;html=1;whiteSpace=wrap;connectable=0;overflow=hidden;fillColor=none;top=0;left=0;bottom=0;right=0;" parent="12xH_gXyC0JP7orOwCKg-53" vertex="1">
          <mxGeometry x="140" width="250" height="35" as="geometry" />
        </mxCell>
        <mxCell id="12xH_gXyC0JP7orOwCKg-56" style="edgeStyle=orthogonalEdgeStyle;rounded=0;orthogonalLoop=1;jettySize=auto;html=1;exitX=1;exitY=0.5;exitDx=0;exitDy=0;" parent="12xH_gXyC0JP7orOwCKg-43" source="12xH_gXyC0JP7orOwCKg-47" target="12xH_gXyC0JP7orOwCKg-47" edge="1">
          <mxGeometry relative="1" as="geometry" />
        </mxCell>
        <mxCell id="ddazaEeR6ssN1BWX0ktI-1" value="Model (already developed)" style="shape=process;whiteSpace=wrap;html=1;backgroundOutline=1;shadow=0;fontFamily=Helvetica;fontSize=12;fontColor=#000000;align=center;strokeColor=#000000;strokeWidth=1;fillColor=#ffffff;rounded=1;" parent="gkHT4bu3b0f0jtjOqA4o-1" vertex="1">
          <mxGeometry x="505.47" y="450" width="130.93" height="70" as="geometry" />
        </mxCell>
        <mxCell id="ddazaEeR6ssN1BWX0ktI-4" value="Format convertor" style="rounded=1;whiteSpace=wrap;html=1;fontSize=12;glass=0;strokeWidth=1;shadow=0;" parent="gkHT4bu3b0f0jtjOqA4o-1" vertex="1">
          <mxGeometry x="510.15" y="320" width="121.57" height="70" as="geometry" />
        </mxCell>
        <mxCell id="ddazaEeR6ssN1BWX0ktI-7" value="A process E.g. merge" style="rounded=1;whiteSpace=wrap;html=1;fontSize=12;glass=0;strokeWidth=1;shadow=0;" parent="gkHT4bu3b0f0jtjOqA4o-1" vertex="1">
          <mxGeometry x="510.14" y="205" width="121.57" height="70" as="geometry" />
        </mxCell>
        <mxCell id="ddazaEeR6ssN1BWX0ktI-8" value="Dataset" style="shape=parallelogram;html=1;strokeWidth=2;perimeter=parallelogramPerimeter;whiteSpace=wrap;rounded=1;arcSize=12;size=0.23;" parent="gkHT4bu3b0f0jtjOqA4o-1" vertex="1">
          <mxGeometry x="1120" y="605" width="109.07" height="60" as="geometry" />
        </mxCell>
        <mxCell id="ddazaEeR6ssN1BWX0ktI-9" value="Model/process (already developed)" style="shape=process;whiteSpace=wrap;html=1;backgroundOutline=1;shadow=0;fontFamily=Helvetica;fontSize=12;fontColor=#000000;align=center;strokeColor=#000000;strokeWidth=1;fillColor=#ffffff;rounded=1;" parent="gkHT4bu3b0f0jtjOqA4o-1" vertex="1">
          <mxGeometry x="1260" y="600" width="130.93" height="70" as="geometry" />
        </mxCell>
        <mxCell id="ddazaEeR6ssN1BWX0ktI-10" value="Model/process not developed" style="rounded=1;whiteSpace=wrap;html=1;fontSize=12;glass=0;strokeWidth=1;shadow=0;" parent="gkHT4bu3b0f0jtjOqA4o-1" vertex="1">
          <mxGeometry x="1420" y="600" width="121.57" height="70" as="geometry" />
        </mxCell>
        <mxCell id="wCKSHiEcdpWvHQWmLOOp-8" style="edgeStyle=orthogonalEdgeStyle;rounded=0;orthogonalLoop=1;jettySize=auto;html=1;exitX=0.5;exitY=1;exitDx=0;exitDy=0;entryX=0.5;entryY=0;entryDx=0;entryDy=0;" edge="1" parent="gkHT4bu3b0f0jtjOqA4o-1" source="wCKSHiEcdpWvHQWmLOOp-0" target="crPVwcIPL3rN5ODeDzdk-15">
          <mxGeometry relative="1" as="geometry" />
        </mxCell>
        <mxCell id="wCKSHiEcdpWvHQWmLOOp-0" value="&lt;div&gt;&lt;b&gt;UKCP18&lt;/b&gt;&lt;/div&gt;&lt;div&gt;12km projections 1981-2080, daily/monthly, 12variations&lt;br&gt;&lt;/div&gt;" style="shape=process;whiteSpace=wrap;html=1;backgroundOutline=1;shadow=0;fontFamily=Helvetica;fontSize=12;fontColor=#000000;align=center;strokeColor=#000000;strokeWidth=1;fillColor=#ffffff;rounded=1;" vertex="1" parent="gkHT4bu3b0f0jtjOqA4o-1">
          <mxGeometry x="505.47" y="-140" width="154.53" height="110" as="geometry" />
        </mxCell>
        <mxCell id="wCKSHiEcdpWvHQWmLOOp-9" value="&lt;div&gt;12month &lt;br&gt;&lt;/div&gt;&lt;div&gt;temp&lt;/div&gt;&lt;div&gt;suitability&lt;br&gt;&lt;/div&gt;" style="shape=parallelogram;html=1;strokeWidth=2;perimeter=parallelogramPerimeter;whiteSpace=wrap;rounded=1;arcSize=12;size=0.23;" vertex="1" parent="gkHT4bu3b0f0jtjOqA4o-1">
          <mxGeometry x="290" y="180" width="100" height="60" as="geometry" />
        </mxCell>
        <mxCell id="wCKSHiEcdpWvHQWmLOOp-10" value="&lt;div&gt;12month &lt;br&gt;&lt;/div&gt;&lt;div&gt;rainfall&lt;/div&gt;&lt;div&gt;suitability&lt;br&gt;&lt;/div&gt;" style="shape=parallelogram;html=1;strokeWidth=2;perimeter=parallelogramPerimeter;whiteSpace=wrap;rounded=1;arcSize=12;size=0.23;" vertex="1" parent="gkHT4bu3b0f0jtjOqA4o-1">
          <mxGeometry x="380" y="180" width="100" height="60" as="geometry" />
        </mxCell>
        <mxCell id="wCKSHiEcdpWvHQWmLOOp-15" style="edgeStyle=orthogonalEdgeStyle;rounded=0;orthogonalLoop=1;jettySize=auto;html=1;exitX=0.5;exitY=1;exitDx=0;exitDy=0;entryX=0.69;entryY=0;entryDx=0;entryDy=0;entryPerimeter=0;" edge="1" parent="gkHT4bu3b0f0jtjOqA4o-1" source="crPVwcIPL3rN5ODeDzdk-17" target="wCKSHiEcdpWvHQWmLOOp-9">
          <mxGeometry relative="1" as="geometry" />
        </mxCell>
        <mxCell id="wCKSHiEcdpWvHQWmLOOp-16" style="edgeStyle=orthogonalEdgeStyle;rounded=0;orthogonalLoop=1;jettySize=auto;html=1;exitX=0.5;exitY=1;exitDx=0;exitDy=0;entryX=0.69;entryY=-0.017;entryDx=0;entryDy=0;entryPerimeter=0;" edge="1" parent="gkHT4bu3b0f0jtjOqA4o-1" source="crPVwcIPL3rN5ODeDzdk-16" target="wCKSHiEcdpWvHQWmLOOp-10">
          <mxGeometry relative="1" as="geometry" />
        </mxCell>
        <mxCell id="wCKSHiEcdpWvHQWmLOOp-17" value="&lt;div&gt;Crop relative suitability&lt;/div&gt;&lt;div&gt;index (e.g. unsuitable,&lt;/div&gt;&lt;div&gt;marginal, suitable&lt;br&gt;&lt;/div&gt;" style="shape=parallelogram;html=1;strokeWidth=2;perimeter=parallelogramPerimeter;whiteSpace=wrap;rounded=1;arcSize=12;size=0.12;" vertex="1" parent="gkHT4bu3b0f0jtjOqA4o-1">
          <mxGeometry x="255" y="280" width="170" height="60" as="geometry" />
        </mxCell>
        <mxCell id="wCKSHiEcdpWvHQWmLOOp-18" value="&lt;div&gt;&amp;nbsp;FAO-Ecocrop&lt;/div&gt;&lt;div&gt;database&lt;br&gt;&lt;/div&gt;" style="shape=parallelogram;html=1;strokeWidth=2;perimeter=parallelogramPerimeter;whiteSpace=wrap;rounded=1;arcSize=12;size=0.23;" vertex="1" parent="gkHT4bu3b0f0jtjOqA4o-1">
          <mxGeometry x="180" y="180" width="119.11" height="60" as="geometry" />
        </mxCell>
      </root>
    </mxGraphModel>
  </diagram>
</mxfile>
